<svg id="halftoneSmall" width="28" height="9" viewBox="0 0 28 9" fill="none" xmlns="http://www.w3.org/2000/svg">
    <g clip-path="url(#clip0)">
        <rect width="1280" height="2482" transform="translate(-41 -1716)"/>
        <path d="M2.63093 3.43423C2.35077 3.43411 2.077 3.3505 1.84471 3.19412C1.61241 3.03774 1.43217 2.8157 1.32701 2.55643C1.22184 2.29715 1.19657 2.01244 1.25443 1.73875C1.31228 1.46505 1.45063 1.21482 1.65176 1.02009C1.85289 0.825359 2.10764 0.69499 2.38342 0.645672C2.65919 0.596354 2.94344 0.630331 3.19976 0.743253C3.45608 0.856175 3.67281 1.0429 3.82222 1.27954C3.97162 1.51617 4.04691 1.79193 4.03842 2.07153C4.02948 2.43752 3.87699 2.78538 3.61375 3.04023C3.35052 3.29509 2.9976 3.43658 2.63093 3.43423V3.43423Z" fill="#12e5ff"/>
        <path d="M2.63117 3.44266C2.35135 3.44258 2.07792 3.35923 1.84577 3.20325C1.61363 3.04728 1.43332 2.82576 1.32786 2.56698C1.22241 2.30821 1.19662 2.02393 1.25375 1.75044C1.31088 1.47695 1.44834 1.22667 1.64861 1.03156C1.84887 0.836455 2.10284 0.705374 2.37808 0.655059C2.65332 0.604745 2.93734 0.63748 3.19385 0.749086C3.45036 0.860692 3.66773 1.0461 3.81821 1.28164C3.96868 1.51717 4.04543 1.79215 4.03865 2.07144C4.02974 2.43821 3.87753 2.78696 3.61453 3.04318C3.35154 3.2994 2.99862 3.44277 2.63117 3.44266V3.44266Z" fill="#12e5ff"/>
        <path d="M2.63093 3.43399C2.35077 3.43386 2.077 3.35026 1.84471 3.19387C1.61241 3.03749 1.43217 2.81546 1.32701 2.55618C1.22184 2.29691 1.19657 2.0122 1.25443 1.7385C1.31228 1.46481 1.45063 1.21458 1.65176 1.01985C1.85289 0.825115 2.10764 0.694746 2.38342 0.645428C2.65919 0.59611 2.94344 0.630087 3.19976 0.743009C3.45608 0.855931 3.67281 1.04266 3.82222 1.27929C3.97162 1.51592 4.04691 1.79169 4.03842 2.07129C4.02948 2.43728 3.87699 2.78513 3.61375 3.03999C3.35052 3.29485 2.9976 3.43633 2.63093 3.43399V3.43399Z" fill="#12e5ff"/>
        <path d="M12.0059 3.43399C11.7258 3.43386 11.452 3.35026 11.2197 3.19387C10.9874 3.03749 10.8072 2.81546 10.702 2.55618C10.5968 2.29691 10.5716 2.0122 10.6294 1.7385C10.6873 1.46481 10.8256 1.21458 11.0268 1.01985C11.2279 0.825115 11.4827 0.694746 11.7584 0.645428C12.0342 0.59611 12.3184 0.630087 12.5748 0.743009C12.8311 0.855931 13.0478 1.04266 13.1972 1.27929C13.3466 1.51592 13.4219 1.79169 13.4134 2.07129C13.4045 2.43728 13.252 2.78513 12.9888 3.03999C12.7255 3.29485 12.3726 3.43633 12.0059 3.43399V3.43399Z" fill="#12e5ff"/>
        <path d="M21.3731 3.43411C21.093 3.43398 20.8192 3.35038 20.5869 3.194C20.3546 3.03762 20.1743 2.81558 20.0692 2.5563C19.964 2.29703 19.9388 2.01232 19.9966 1.73862C20.0545 1.46493 20.1928 1.2147 20.3939 1.01997C20.5951 0.825237 20.8498 0.694868 21.1256 0.64555C21.4014 0.596232 21.6856 0.630209 21.9419 0.743131C22.1983 0.856053 22.415 1.04278 22.5644 1.27941C22.7138 1.51604 22.7891 1.79181 22.7806 2.07141C22.7717 2.4374 22.6192 2.78525 22.3559 3.04011C22.0927 3.29497 21.7398 3.43645 21.3731 3.43411V3.43411Z" fill="#12e5ff"/>
        <path d="M16.6902 8.11856C16.4118 8.11856 16.1397 8.03614 15.9082 7.88173C15.6767 7.72731 15.4964 7.50784 15.3898 7.25105C15.2833 6.99427 15.2554 6.71171 15.3097 6.43911C15.364 6.16652 15.4981 5.91612 15.6949 5.71958C15.8918 5.52305 16.1426 5.38921 16.4156 5.33499C16.6886 5.28076 16.9716 5.30859 17.2288 5.41496C17.486 5.52132 17.7058 5.70144 17.8605 5.93254C18.0151 6.16363 18.0977 6.43533 18.0977 6.71327C18.0977 7.08598 17.9494 7.44342 17.6854 7.70696C17.4215 7.9705 17.0635 8.11856 16.6902 8.11856Z" fill="#12e5ff"/>
        <path d="M7.31566 8.11856C7.03729 8.11856 6.76517 8.03614 6.53371 7.88173C6.30225 7.72731 6.12186 7.50784 6.01533 7.25105C5.9088 6.99427 5.88092 6.71171 5.93523 6.43911C5.98953 6.16652 6.12358 5.91612 6.32042 5.71958C6.51726 5.52305 6.76805 5.38921 7.04107 5.33499C7.3141 5.28076 7.59711 5.30859 7.85429 5.41496C8.11148 5.52132 8.33128 5.70144 8.48594 5.93254C8.6406 6.16363 8.72314 6.43533 8.72314 6.71327C8.72314 7.08598 8.57485 7.44342 8.3109 7.70696C8.04694 7.9705 7.68895 8.11856 7.31566 8.11856V8.11856Z" fill="#12e5ff"/>
        <path d="M2.63117 3.44278C2.35136 3.4427 2.07792 3.35935 1.84578 3.20337C1.61363 3.0474 1.43332 2.82588 1.32787 2.56711C1.22241 2.30833 1.19662 2.02405 1.25375 1.75056C1.31088 1.47707 1.44834 1.22679 1.64861 1.03169C1.84888 0.836577 2.10285 0.705496 2.37808 0.655181C2.65332 0.604867 2.93734 0.637602 3.19385 0.749208C3.45037 0.860814 3.66773 1.04622 3.81821 1.28176C3.96868 1.5173 4.04543 1.79227 4.03865 2.07156C4.02974 2.43833 3.87753 2.78708 3.61453 3.0433C3.35154 3.29952 2.99862 3.44289 2.63117 3.44278V3.44278Z" fill="#12e5ff"/>
        <path d="M12.0071 3.44278C11.7273 3.4427 11.4539 3.35935 11.2217 3.20337C10.9896 3.0474 10.8093 2.82588 10.7039 2.56711C10.5984 2.30833 10.5726 2.02405 10.6297 1.75056C10.6869 1.47707 10.8243 1.22679 11.0246 1.03169C11.2249 0.836577 11.4788 0.705496 11.7541 0.655181C12.0293 0.604867 12.3133 0.637602 12.5698 0.749208C12.8263 0.860814 13.0437 1.04622 13.1942 1.28176C13.3447 1.5173 13.4214 1.79227 13.4146 2.07156C13.4057 2.43833 13.2535 2.78708 12.9905 3.0433C12.7275 3.29952 12.3746 3.44289 12.0071 3.44278V3.44278Z" fill="#12e5ff"/>
        <path d="M21.3734 3.44278C21.0935 3.4427 20.8201 3.35935 20.588 3.20337C20.3558 3.0474 20.1755 2.82588 20.0701 2.56711C19.9646 2.30833 19.9388 2.02405 19.9959 1.75056C20.0531 1.47707 20.1905 1.22679 20.3908 1.03169C20.5911 0.836577 20.845 0.705496 21.1203 0.655181C21.3955 0.604867 21.6795 0.637602 21.936 0.749208C22.1926 0.860814 22.4099 1.04622 22.5604 1.28176C22.7109 1.5173 22.7876 1.79227 22.7808 2.07156C22.7719 2.43833 22.6197 2.78708 22.3567 3.0433C22.0937 3.29952 21.7408 3.44289 21.3734 3.44278V3.44278Z" fill="#12e5ff"/>
        <path d="M21.3736 3.43411C21.0934 3.43398 20.8197 3.35038 20.5874 3.194C20.3551 3.03762 20.1748 2.81558 20.0697 2.5563C19.9645 2.29703 19.9392 2.01232 19.9971 1.73862C20.055 1.46493 20.1933 1.2147 20.3944 1.01997C20.5956 0.825237 20.8503 0.694868 21.1261 0.64555C21.4019 0.596232 21.6861 0.630209 21.9424 0.743131C22.1988 0.856053 22.4155 1.04278 22.5649 1.27941C22.7143 1.51604 22.7896 1.79181 22.7811 2.07141C22.7722 2.4374 22.6197 2.78525 22.3564 3.04011C22.0932 3.29497 21.7403 3.43645 21.3736 3.43411V3.43411Z" fill="#12e5ff"/>
        <path d="M26.0657 8.11856C25.7873 8.11856 25.5152 8.03614 25.2837 7.88173C25.0522 7.72731 24.8718 7.50784 24.7653 7.25105C24.6588 6.99427 24.6309 6.71171 24.6852 6.43911C24.7395 6.16652 24.8736 5.91612 25.0704 5.71958C25.2673 5.52305 25.518 5.38921 25.7911 5.33499C26.0641 5.28076 26.3471 5.30859 26.6043 5.41496C26.8615 5.52132 27.0813 5.70144 27.2359 5.93254C27.3906 6.16363 27.4731 6.43533 27.4731 6.71327C27.4731 7.08598 27.3249 7.44342 27.0609 7.70696C26.7969 7.9705 26.4389 8.11856 26.0657 8.11856Z" fill="#12e5ff"/>
        <path d="M21.3738 3.44278C21.094 3.4427 20.8206 3.35935 20.5884 3.20337C20.3563 3.0474 20.176 2.82588 20.0705 2.56711C19.9651 2.30833 19.9393 2.02405 19.9964 1.75056C20.0536 1.47707 20.191 1.22679 20.3913 1.03169C20.5915 0.836577 20.8455 0.705496 21.1208 0.655181C21.396 0.604867 21.68 0.637602 21.9365 0.749208C22.193 0.860814 22.4104 1.04622 22.5609 1.28176C22.7114 1.5173 22.7881 1.79227 22.7813 2.07156C22.7724 2.43833 22.6202 2.78708 22.3572 3.0433C22.0942 3.29952 21.7413 3.44289 21.3738 3.44278V3.44278Z" fill="#12e5ff"/>
    </g>
    <defs>
        <clipPath id="clip0">
            <rect width="1280" height="2482" fill="white" transform="translate(-41 -1716)"/>
        </clipPath>
    </defs>
</svg>
