<svg id="halftoneLarge" width="22" height="11" viewBox="0 0 22 11" fill="none" xmlns="http://www.w3.org/2000/svg">
    <rect width="22" height="11"/>
    <path d="M0.817567 -3.10026C0.0544932 -3.10224 -0.692012 -2.87812 -1.32745 -2.45628C-1.96288 -2.03444 -2.45868 -1.43385 -2.75207 -0.730528C-3.04546 -0.0272093 -3.12325 0.747207 -2.9756 1.49469C-2.82795 2.24218 -2.46149 2.92911 -1.92262 3.46855C-1.38374 4.00798 -0.696684 4.37565 0.0515841 4.52502C0.799852 4.67438 1.57569 4.59873 2.28087 4.30763C2.98605 4.01652 3.58887 3.52307 4.01302 2.88973C4.43717 2.25638 4.66357 1.51163 4.66357 0.749742C4.66358 -0.269611 4.2587 -1.24736 3.53771 -1.96909C2.81673 -2.69082 1.83851 -3.09761 0.817567 -3.10026V-3.10026Z" fill="#fee278"/>
    <path d="M0.817555 7.88973C0.054056 7.88775 -0.692846 8.11212 -1.3285 8.53441C-1.96415 8.95669 -2.45994 9.55787 -2.75303 10.2618C-3.04613 10.9657 -3.12334 11.7406 -2.97487 12.4884C-2.8264 13.2361 -2.45894 13.923 -1.91907 14.4621C-1.37919 15.0011 -0.691196 15.368 0.0577317 15.5162C0.806659 15.6645 1.58281 15.5874 2.28781 15.2947C2.99281 15.0021 3.59494 14.5071 4.01788 13.8724C4.44083 13.2378 4.66554 12.492 4.66356 11.7297C4.66092 10.7121 4.25487 9.73693 3.53417 9.01736C2.81348 8.29779 1.83677 7.89237 0.817555 7.88973Z" fill="#fee278"/>
    <path d="M6.288 2.39973C5.52493 2.39974 4.77901 2.62579 4.14467 3.04928C3.51034 3.47276 3.0161 4.07464 2.72455 4.77872C2.43299 5.48279 2.35722 6.25742 2.50681 7.00451C2.65641 7.75161 3.02466 8.4376 3.56494 8.97563C4.10522 9.51366 4.79323 9.87955 5.54189 10.027C6.29054 10.1744 7.06618 10.0967 7.7706 9.80379C8.47502 9.51086 9.07655 9.01584 9.49905 8.3814C9.92155 7.74695 10.146 7.00161 10.144 6.23973C10.144 5.73461 10.0442 5.23446 9.85032 4.76791C9.65641 4.30137 9.37222 3.87761 9.01402 3.5209C8.65582 3.16419 8.23066 2.88155 7.76289 2.68916C7.29511 2.49677 6.79391 2.39842 6.288 2.39973V2.39973Z" fill="#fee278"/>
    <path d="M6.2885 2.39985C5.52542 2.39986 4.77951 2.62591 4.14518 3.0494C3.51084 3.47289 3.01661 4.07476 2.72505 4.77884C2.43349 5.48292 2.35772 6.25754 2.50732 7.00464C2.65692 7.75174 3.02517 8.43772 3.56544 8.97575C4.10572 9.51378 4.79373 9.87967 5.54238 10.0271C6.29104 10.1745 7.06667 10.0968 7.77109 9.80391C8.47551 9.51098 9.07704 9.01596 9.49954 8.38152C9.92204 7.74707 10.1465 7.00173 10.1445 6.23985C10.1445 5.73473 10.0447 5.23458 9.85081 4.76803C9.6569 4.30149 9.37271 3.87773 9.01451 3.52102C8.65631 3.16432 8.23116 2.88167 7.76338 2.68928C7.29561 2.49689 6.79441 2.39854 6.2885 2.39985V2.39985Z" fill="#fee278"/>
    <path d="M17.2968 2.39985C16.5337 2.39986 15.7878 2.62591 15.1535 3.0494C14.5191 3.47289 14.0249 4.07476 13.7333 4.77884C13.4418 5.48292 13.366 6.25754 13.5156 7.00464C13.6652 7.75174 14.0335 8.43772 14.5737 8.97575C15.114 9.51378 15.802 9.87967 16.5507 10.0271C17.2993 10.1745 18.075 10.0968 18.7794 9.80391C19.4838 9.51098 20.0853 9.01596 20.5078 8.38152C20.9303 7.74707 21.1548 7.00173 21.1528 6.23985C21.1528 5.73473 21.053 5.23458 20.8591 4.76803C20.6652 4.30149 20.381 3.87773 20.0228 3.52102C19.6646 3.16432 19.2394 2.88167 18.7717 2.68928C18.3039 2.49689 17.8027 2.39854 17.2968 2.39985Z" fill="#fee278"/>
    <path d="M22.7953 -3.10015C22.0327 -3.10015 21.2872 -2.87435 20.653 -2.45131C20.0189 -2.02826 19.5247 -1.42697 19.2328 -0.723478C18.941 -0.0199821 18.8646 0.754122 19.0134 1.50095C19.1622 2.24778 19.5294 2.93378 20.0687 3.47221C20.608 4.01064 21.2951 4.37732 22.0431 4.52587C22.7911 4.67443 23.5664 4.59819 24.271 4.30679C24.9756 4.01539 25.5778 3.52193 26.0015 2.8888C26.4252 2.25567 26.6514 1.51131 26.6514 0.74985C26.6527 0.243891 26.5538 -0.257343 26.3605 -0.725042C26.1672 -1.19274 25.8832 -1.61769 25.5249 -1.97545C25.1666 -2.33322 24.741 -2.61676 24.2725 -2.80977C23.8041 -3.00279 23.3021 -3.10147 22.7953 -3.10015V-3.10015Z" fill="#fee278"/>
    <path d="M11.8386 -3.10013C11.0755 -3.10211 10.329 -2.878 9.69355 -2.45616C9.05811 -2.03432 8.56232 -1.43372 8.26893 -0.730406C7.97554 -0.0270873 7.89774 0.747329 8.0454 1.49481C8.19305 2.2423 8.55951 2.92923 9.09838 3.46867C9.63725 4.0081 10.3243 4.37577 11.0726 4.52514C11.8208 4.67451 12.5967 4.59885 13.3019 4.30775C14.007 4.01665 14.6099 3.52319 15.034 2.88985C15.4582 2.2565 15.6846 1.51175 15.6846 0.749864C15.6846 -0.269489 15.2797 -1.24724 14.5587 -1.96897C13.8377 -2.6907 12.8595 -3.09749 11.8386 -3.10013V-3.10013Z" fill="#fee278"/>
    <path d="M22.7953 7.88984C22.0323 7.88984 21.2863 8.1159 20.652 8.53939C20.0177 8.96287 19.5234 9.56475 19.2319 10.2688C18.9403 10.9729 18.8645 11.7475 19.0141 12.4946C19.1637 13.2417 19.532 13.9277 20.0723 14.4657C20.6125 15.0038 21.3006 15.3697 22.0492 15.5171C22.7979 15.6645 23.5735 15.5868 24.2779 15.2939C24.9823 15.001 25.5839 14.5059 26.0064 13.8715C26.4289 13.2371 26.6533 12.4917 26.6514 11.7298C26.6514 11.2247 26.5515 10.7246 26.3576 10.258C26.1637 9.79148 25.8795 9.36772 25.5213 9.01101C25.1631 8.6543 24.738 8.37166 24.2702 8.17927C23.8024 7.98688 23.3012 7.88853 22.7953 7.88984Z" fill="#fee278"/>
    <path d="M11.8385 7.88985C11.075 7.88787 10.3281 8.11225 9.69249 8.53453C9.05683 8.95681 8.56104 9.55799 8.26795 10.2619C7.97485 10.9658 7.89764 11.7407 8.04611 12.4885C8.19458 13.2362 8.56204 13.9232 9.10192 14.4622C9.64179 15.0012 10.3298 15.3681 11.0787 15.5164C11.8276 15.6646 12.6038 15.5875 13.3088 15.2949C14.0138 15.0022 14.6159 14.5072 15.0389 13.8726C15.4618 13.2379 15.6865 12.4922 15.6846 11.7299C15.6846 11.2256 15.5851 10.7262 15.3918 10.2603C15.1985 9.79446 14.9152 9.37114 14.5581 9.01456C14.2009 8.65799 13.777 8.37514 13.3104 8.18216C12.8437 7.98918 12.3436 7.88985 11.8385 7.88985V7.88985Z" fill="#fee278"/>
</svg>
