<svg id="halftoneMedium" width="22" height="11" viewBox="0 0 22 11" fill="none" xmlns="http://www.w3.org/2000/svg">
    <g clip-path="url(#clip0)">
        <rect width="1280" height="2482" transform="translate(-701 -1708)"/>
        <path d="M23.4747 8.98997C24.0199 8.99195 24.5534 8.83235 25.0077 8.53138C25.462 8.23042 25.8165 7.80162 26.0265 7.2993C26.2365 6.79698 26.2925 6.24374 26.1874 5.70963C26.0822 5.17553 25.8207 4.68459 25.4359 4.29899C25.0511 3.9134 24.5604 3.65049 24.0258 3.54357C23.4913 3.43665 22.9369 3.49052 22.4331 3.69836C21.9292 3.90621 21.4985 4.25867 21.1954 4.71112C20.8923 5.16357 20.7305 5.69565 20.7305 6.23997C20.7305 6.96759 21.0193 7.66555 21.5336 8.18099C22.048 8.69643 22.746 8.98733 23.4747 8.98997V8.98997Z" fill="black"/>
        <path d="M17.9774 14.48C18.5222 14.48 19.0547 14.3187 19.5077 14.0165C19.9606 13.7143 20.3136 13.2849 20.5221 12.7824C20.7306 12.2799 20.7851 11.7269 20.6788 11.1935C20.5726 10.66 20.3102 10.17 19.925 9.78544C19.5398 9.40084 19.0491 9.13893 18.5148 9.03282C17.9805 8.92671 17.4267 8.98117 16.9234 9.18931C16.4201 9.39745 15.99 9.74993 15.6873 10.2022C15.3847 10.6544 15.2231 11.1861 15.2231 11.73C15.2231 12.4593 15.5133 13.1588 16.0299 13.6745C16.5464 14.1902 17.247 14.48 17.9774 14.48Z" fill="black"/>
        <path d="M17.9775 3.48999C18.5226 3.48999 19.0556 3.32845 19.5087 3.02583C19.9619 2.72321 20.3149 2.29313 20.5231 1.79005C20.7312 1.28697 20.7852 0.733524 20.6781 0.199805C20.571 -0.333914 20.3077 -0.823897 19.9215 -1.20809C19.5353 -1.59228 19.0436 -1.8534 18.5086 -1.95838C17.9737 -2.06336 17.4196 -2.00747 16.9165 -1.7978C16.4134 -1.58812 15.9839 -1.23409 15.6825 -0.780542C15.381 -0.326993 15.2212 0.205672 15.2232 0.749992C15.2258 1.4776 15.5172 2.17451 16.0334 2.68807C16.5497 3.20164 17.2487 3.49 17.9775 3.48999V3.48999Z" fill="black"/>
        <path d="M12.4774 8.98999C13.9986 8.98999 15.2318 7.75877 15.2318 6.23999C15.2318 4.72121 13.9986 3.48999 12.4774 3.48999C10.9563 3.48999 9.72314 4.72121 9.72314 6.23999C9.72314 7.75877 10.9563 8.98999 12.4774 8.98999Z" fill="black"/>
        <path d="M12.4774 8.98999C13.9986 8.98999 15.2318 7.75877 15.2318 6.23999C15.2318 4.72121 13.9986 3.48999 12.4774 3.48999C10.9563 3.48999 9.72314 4.72121 9.72314 6.23999C9.72314 7.75877 10.9563 8.98999 12.4774 8.98999Z" fill="black"/>
        <path d="M1.46917 8.98999C2.01392 8.98999 2.54646 8.82871 2.99941 8.52653C3.45235 8.22436 3.80538 7.79487 4.01385 7.29237C4.22231 6.78987 4.27686 6.23694 4.17059 5.70349C4.06431 5.17005 3.80198 4.68004 3.41678 4.29545C3.03158 3.91085 2.5408 3.64894 2.00651 3.54283C1.47223 3.43672 0.918433 3.49118 0.415146 3.69932C-0.0881411 3.90746 -0.518307 4.25994 -0.820957 4.71217C-1.12361 5.16441 -1.28516 5.69609 -1.28516 6.23999C-1.28516 6.96934 -0.994944 7.66881 -0.478408 8.18454C0.0381281 8.70026 0.738677 8.98999 1.46917 8.98999Z" fill="black"/>
        <path d="M6.97746 14.48C7.52221 14.48 8.05474 14.3187 8.50768 14.0165C8.96063 13.7143 9.31365 13.2849 9.52212 12.7824C9.73059 12.2799 9.78513 11.7269 9.67886 11.1935C9.57258 10.66 9.31025 10.17 8.92505 9.78544C8.53986 9.40084 8.04908 9.13893 7.5148 9.03282C6.98051 8.92671 6.42672 8.98117 5.92344 9.18931C5.42015 9.39745 4.98999 9.74993 4.68734 10.2022C4.38469 10.6544 4.22314 11.1861 4.22314 11.73C4.22314 12.4593 4.51335 13.1588 5.02989 13.6745C5.54642 14.1902 6.24697 14.48 6.97746 14.48Z" fill="black"/>
        <path d="M6.97748 3.48999C7.52265 3.48999 8.05558 3.32845 8.50874 3.02583C8.9619 2.72321 9.31492 2.29313 9.52309 1.79005C9.73126 1.28697 9.78521 0.733523 9.67812 0.199804C9.57103 -0.333914 9.30773 -0.823898 8.92153 -1.20809C8.53533 -1.59228 8.04362 -1.8534 7.50867 -1.95838C6.97373 -2.06336 6.4196 -2.00747 5.91649 -1.7978C5.41338 -1.58812 4.98394 -1.23409 4.6825 -0.780542C4.38106 -0.326993 4.22118 0.205671 4.22316 0.749991C4.22316 1.11066 4.29449 1.46777 4.43303 1.80086C4.57156 2.13394 4.77459 2.43644 5.03049 2.69101C5.28638 2.94557 5.59011 3.14719 5.92422 3.2843C6.25833 3.42141 6.61625 3.49131 6.97748 3.48999V3.48999Z" fill="black"/>
    </g>
    <defs>
        <clipPath id="clip0">
            <rect width="1280" height="2482" fill="white" transform="translate(-701 -1708)"/>
        </clipPath>
    </defs>
</svg>
